<svg width="273" height="47" viewBox="0 0 273 47" fill="none" xmlns="http://www.w3.org/2000/svg">
<path d="M0.521246 20.672L21.1612 11.984L23.0332 17.792L7.96125 23.648L23.0332 29.504L21.1612 35.312L0.521246 26.624V20.672ZM64.4996 26.624L43.8596 35.312L41.9876 29.504L57.0596 23.648L41.9876 17.792L43.8596 11.984L64.4996 20.672V26.624Z" fill="#2563EB"/>
<path d="M28.1865 46.88H20.8425L36.9705 0.415998H44.2185L28.1865 46.88Z" fill="#F4F4F5"/>
<path d="M103.371 38C102.699 36.912 101.899 35.744 100.971 34.496C100.075 33.216 99.0834 31.952 97.9954 30.704C96.9394 29.424 95.8354 28.208 94.6834 27.056C93.5314 25.872 92.3794 24.832 91.2274 23.936V38H83.7394V4.736H91.2274V17.312C93.1794 15.264 95.1314 13.136 97.0834 10.928C99.0674 8.688 100.907 6.624 102.603 4.736H111.483C109.211 7.424 106.923 10.016 104.619 12.512C102.347 15.008 99.9474 17.52 97.4194 20.048C100.075 22.256 102.635 24.88 105.099 27.92C107.595 30.96 109.979 34.32 112.251 38H103.371ZM121.891 33.008C122.595 33.008 123.267 32.992 123.907 32.96C124.547 32.928 125.059 32.88 125.443 32.816V27.392C125.155 27.328 124.723 27.264 124.147 27.2C123.571 27.136 123.043 27.104 122.563 27.104C121.891 27.104 121.251 27.152 120.643 27.248C120.067 27.312 119.555 27.456 119.107 27.68C118.659 27.904 118.307 28.208 118.051 28.592C117.795 28.976 117.667 29.456 117.667 30.032C117.667 31.152 118.035 31.936 118.771 32.384C119.539 32.8 120.579 33.008 121.891 33.008ZM121.315 12.08C123.427 12.08 125.187 12.32 126.595 12.8C128.003 13.28 129.123 13.968 129.955 14.864C130.819 15.76 131.427 16.848 131.779 18.128C132.131 19.408 132.307 20.832 132.307 22.4V37.28C131.283 37.504 129.859 37.76 128.035 38.048C126.211 38.368 124.003 38.528 121.411 38.528C119.779 38.528 118.291 38.384 116.947 38.096C115.635 37.808 114.499 37.344 113.539 36.704C112.579 36.032 111.843 35.168 111.331 34.112C110.819 33.056 110.563 31.76 110.563 30.224C110.563 28.752 110.851 27.504 111.427 26.48C112.035 25.456 112.835 24.64 113.827 24.032C114.819 23.424 115.955 22.992 117.235 22.736C118.515 22.448 119.843 22.304 121.219 22.304C122.147 22.304 122.963 22.352 123.667 22.448C124.403 22.512 124.995 22.608 125.443 22.736V22.064C125.443 20.848 125.075 19.872 124.339 19.136C123.603 18.4 122.323 18.032 120.499 18.032C119.283 18.032 118.083 18.128 116.899 18.32C115.715 18.48 114.691 18.72 113.827 19.04L112.915 13.28C113.331 13.152 113.843 13.024 114.451 12.896C115.091 12.736 115.779 12.608 116.515 12.512C117.251 12.384 118.019 12.288 118.819 12.224C119.651 12.128 120.483 12.08 121.315 12.08ZM157.221 12.752C155.781 17.616 154.277 22.176 152.709 26.432C151.141 30.688 149.429 34.816 147.573 38.816C146.901 40.256 146.229 41.472 145.557 42.464C144.885 43.488 144.149 44.32 143.349 44.96C142.549 45.632 141.637 46.112 140.613 46.4C139.621 46.72 138.453 46.88 137.109 46.88C135.989 46.88 134.949 46.768 133.989 46.544C133.061 46.352 132.293 46.128 131.685 45.872L132.933 40.16C133.669 40.416 134.325 40.592 134.901 40.688C135.477 40.784 136.085 40.832 136.725 40.832C138.005 40.832 138.981 40.48 139.653 39.776C140.357 39.104 140.949 38.16 141.429 36.944C139.797 33.744 138.165 30.16 136.533 26.192C134.901 22.192 133.365 17.712 131.925 12.752H139.509C139.829 14 140.197 15.36 140.613 16.832C141.061 18.272 141.525 19.744 142.005 21.248C142.485 22.72 142.965 24.16 143.445 25.568C143.957 26.976 144.437 28.256 144.885 29.408C145.301 28.256 145.733 26.976 146.181 25.568C146.629 24.16 147.061 22.72 147.477 21.248C147.925 19.744 148.341 18.272 148.725 16.832C149.141 15.36 149.509 14 149.829 12.752H157.221ZM164.847 21.872C165.551 21.104 166.271 20.304 167.007 19.472C167.775 18.64 168.511 17.824 169.215 17.024C169.919 16.192 170.575 15.408 171.183 14.672C171.823 13.936 172.367 13.296 172.815 12.752H181.311C179.615 14.704 177.951 16.576 176.319 18.368C174.719 20.128 172.959 21.952 171.039 23.84C171.999 24.704 172.991 25.744 174.015 26.96C175.039 28.144 176.031 29.376 176.991 30.656C177.951 31.936 178.831 33.216 179.631 34.496C180.431 35.776 181.103 36.944 181.647 38H173.439C172.927 37.168 172.335 36.256 171.663 35.264C171.023 34.24 170.335 33.232 169.599 32.24C168.863 31.216 168.079 30.24 167.247 29.312C166.447 28.384 165.647 27.6 164.847 26.96V38H157.695V1.904L164.847 0.751999V21.872ZM179.197 25.568C179.197 23.328 179.533 21.376 180.205 19.712C180.909 18.016 181.821 16.608 182.941 15.488C184.061 14.368 185.341 13.52 186.781 12.944C188.253 12.368 189.757 12.08 191.293 12.08C194.877 12.08 197.709 13.184 199.789 15.392C201.869 17.568 202.909 20.784 202.909 25.04C202.909 25.456 202.893 25.92 202.861 26.432C202.829 26.912 202.797 27.344 202.765 27.728H186.541C186.701 29.2 187.389 30.368 188.605 31.232C189.821 32.096 191.453 32.528 193.501 32.528C194.813 32.528 196.093 32.416 197.341 32.192C198.621 31.936 199.661 31.632 200.461 31.28L201.421 37.088C201.037 37.28 200.525 37.472 199.885 37.664C199.245 37.856 198.525 38.016 197.725 38.144C196.957 38.304 196.125 38.432 195.229 38.528C194.333 38.624 193.437 38.672 192.541 38.672C190.269 38.672 188.285 38.336 186.589 37.664C184.925 36.992 183.533 36.08 182.413 34.928C181.325 33.744 180.509 32.352 179.965 30.752C179.453 29.152 179.197 27.424 179.197 25.568ZM195.997 22.832C195.965 22.224 195.853 21.632 195.661 21.056C195.501 20.48 195.229 19.968 194.845 19.52C194.493 19.072 194.029 18.704 193.453 18.416C192.909 18.128 192.221 17.984 191.389 17.984C190.589 17.984 189.901 18.128 189.325 18.416C188.749 18.672 188.269 19.024 187.885 19.472C187.501 19.92 187.197 20.448 186.973 21.056C186.781 21.632 186.637 22.224 186.541 22.832H195.997ZM201.709 40.928H225.709V46.88H201.709V40.928ZM241.885 25.184C241.885 20.576 240.189 18.272 236.797 18.272C236.061 18.272 235.325 18.368 234.589 18.56C233.885 18.752 233.309 18.992 232.861 19.28V32.288C233.213 32.352 233.661 32.416 234.205 32.48C234.749 32.512 235.341 32.528 235.981 32.528C237.933 32.528 239.405 31.856 240.397 30.512C241.389 29.168 241.885 27.392 241.885 25.184ZM249.181 25.376C249.181 27.392 248.877 29.216 248.269 30.848C247.693 32.48 246.845 33.872 245.725 35.024C244.605 36.176 243.229 37.072 241.597 37.712C239.965 38.32 238.109 38.624 236.029 38.624C235.165 38.624 234.253 38.576 233.293 38.48C232.365 38.416 231.437 38.32 230.509 38.192C229.613 38.064 228.749 37.92 227.917 37.76C227.085 37.568 226.349 37.376 225.709 37.184V1.904L232.861 0.751999V13.328C233.661 12.976 234.493 12.704 235.357 12.512C236.221 12.32 237.149 12.224 238.141 12.224C239.933 12.224 241.517 12.544 242.893 13.184C244.269 13.792 245.421 14.672 246.349 15.824C247.277 16.976 247.981 18.368 248.461 20C248.941 21.6 249.181 23.392 249.181 25.376ZM258.902 38.72C258.038 38.72 257.126 38.656 256.166 38.528C255.206 38.432 254.278 38.288 253.382 38.096C252.486 37.904 251.67 37.696 250.934 37.472C250.198 37.248 249.622 37.04 249.206 36.848L250.598 30.896C251.43 31.248 252.486 31.632 253.766 32.048C255.078 32.432 256.694 32.624 258.614 32.624C260.822 32.624 262.438 32.208 263.462 31.376C264.486 30.544 264.998 29.424 264.998 28.016C264.998 27.152 264.806 26.432 264.422 25.856C264.07 25.248 263.574 24.768 262.934 24.416C262.294 24.032 261.526 23.776 260.63 23.648C259.766 23.488 258.838 23.408 257.846 23.408H255.062V17.648H258.23C258.934 17.648 259.606 17.584 260.246 17.456C260.918 17.328 261.51 17.12 262.022 16.832C262.534 16.512 262.934 16.096 263.222 15.584C263.542 15.04 263.702 14.368 263.702 13.568C263.702 12.96 263.574 12.432 263.318 11.984C263.062 11.536 262.726 11.168 262.31 10.88C261.926 10.592 261.462 10.384 260.918 10.256C260.406 10.096 259.878 10.016 259.334 10.016C257.958 10.016 256.678 10.224 255.494 10.64C254.342 11.056 253.286 11.568 252.326 12.176L249.782 6.944C250.294 6.624 250.886 6.288 251.558 5.936C252.262 5.584 253.03 5.264 253.862 4.976C254.694 4.688 255.574 4.448 256.502 4.256C257.462 4.064 258.47 3.968 259.526 3.968C261.478 3.968 263.158 4.208 264.566 4.688C266.006 5.136 267.19 5.792 268.118 6.656C269.046 7.488 269.734 8.48 270.182 9.632C270.63 10.752 270.854 11.984 270.854 13.328C270.854 14.64 270.486 15.92 269.75 17.168C269.014 18.384 268.022 19.312 266.774 19.952C268.502 20.656 269.83 21.712 270.758 23.12C271.718 24.496 272.198 26.16 272.198 28.112C272.198 29.648 271.942 31.072 271.43 32.384C270.918 33.664 270.118 34.784 269.03 35.744C267.942 36.672 266.55 37.408 264.854 37.952C263.19 38.464 261.206 38.72 258.902 38.72Z" fill="#F4F4F5" fill-opacity="0.9"/>
</svg>
